<svg xmlns="http://www.w3.org/2000/svg" viewBox="0 0 24 24"><path fill="#039BE5" d="M1 4a2 2 0 002 2h18a2 2 0 100-4H3a2 2 0 00-2 2zM3 14h18a2 2 0 100-4H3a2 2 0 100 4zM3 22h18a2 2 0 100-4H3a2 2 0 100 4z"/><linearGradient id="a" x1="-.27" x2="24.27" y1="6.279" y2="17.721" gradientUnits="userSpaceOnUse"><stop offset="0" stop-color="#FFF" stop-opacity=".2"/><stop offset="1" stop-color="#FFF" stop-opacity="0"/></linearGradient><path fill="url(#a)" d="M3 6h18a2 2 0 0 0 0-4H3a2 2 0 1 0 0 4zm18 4H3a2 2 0 1 0 0 4h18a2 2 0 0 0 0-4zm0 8H3a2 2 0 1 0 0 4h18a2 2 0 0 0 0-4z"/></svg>